<svg xmlns="http://www.w3.org/2000/svg" viewBox="0 0 1444.93 644.78">
  <defs>
    <style>
      .cls-1 {
        fill: #1a3039;
      }

      .cls-2 {
        fill: #ffcd26;
      }

      .cls-3 {
        fill: #ffe282;
      }
    </style>
  </defs>
  <g id="Layer_2" data-name="Layer 2">
    <g id="Layer_1-2" data-name="Layer 1">
      <g>
        <g>
          <path class="cls-1" d="M66.42,222.53,42.28,212.46c-7.88-3.19-16.28-7.55-16.28-19,0-12.71,11.25-17.23,21.79-17.23C58,176.21,67.2,180.7,75.94,190a1,1,0,0,0,.78.31,1,1,0,0,0,.74-.39L86.62,178a2,2,0,0,0-.14-2.63c-10.73-11-23.42-16.59-37.74-16.59-11.2,0-21.69,3.16-29.52,8.91A32.36,32.36,0,0,0,5.56,194.77c0,15,7.48,26.16,22.21,33,4.93,2.46,13.8,6,21,8.77l.72.29c7,2.76,19.93,7.91,19.93,20.44s-9.91,21-24.65,21c-13.82,0-25.82-9.51-32.44-18.4a1,1,0,0,0-.77-.41,1,1,0,0,0-.79.35L.5,271.53a2,2,0,0,0,0,2.65c6.12,7,19.62,21.72,42.55,21.72,23.25,0,46.79-13.66,46.79-39.76C89.83,241.49,81.53,229.56,66.42,222.53Z"/>
          <path class="cls-1" d="M233.1,177c-12.48-11.83-29.65-18.35-48.33-18.35s-35.85,6.52-48.33,18.35c-13.29,12.59-20.31,30-20.31,50.29s7,37.7,20.31,50.29c12.48,11.83,29.64,18.35,48.33,18.35s35.85-6.52,48.33-18.35c13.28-12.59,20.31-30,20.31-50.29S246.38,189.56,233.1,177Zm-.51,49.91c0,29.61-19.66,50.29-47.82,50.29-13,0-25-4.75-33.68-13.39-9.25-9.2-14.14-22-14.14-36.9,0-29.61,19.66-50.29,47.82-50.29S232.59,197.27,232.59,226.88Z"/>
          <path class="cls-1" d="M351.89,276H309.75a2,2,0,0,1-2-2V162.53a2,2,0,0,0-2-2H289.32a2,2,0,0,0-2,2V291.6a2,2,0,0,0,2,2h62.57a2,2,0,0,0,2-2V278.05A2,2,0,0,0,351.89,276Z"/>
          <rect class="cls-1" x="382.67" y="160.52" width="20.44" height="133.1" rx="2.01"/>
          <path class="cls-1" d="M535,178.31c-12.6-11.47-30.39-17.79-50.09-17.79H446.43a2,2,0,0,0-2,2V291.6a2,2,0,0,0,2,2h38.51c19.7,0,37.49-6.32,50.09-17.79,13.25-12.06,20.26-28.92,20.26-48.76S548.28,190.37,535,178.31Zm-50.09,97.34H466.87a2,2,0,0,1-2-2V180.31a2,2,0,0,1,2-2h18.07c29.63,0,49.53,19.6,49.53,48.77S514.57,275.65,484.94,275.65Z"/>
          <path class="cls-1" d="M688,160.52H671.56a2,2,0,0,0-2,2v74.8c0,9.87,0,21.07-5.88,28.84-5.66,7.43-13.9,11.19-24.47,11.19s-19.07-3.86-24.46-11.19c-5.88-7.77-5.88-19-5.88-28.84v-74.8a2,2,0,0,0-2-2h-16.6a2,2,0,0,0-2,2V239c0,17.2,1.82,30,10.88,40.55,9.22,10.82,22.71,16.31,40.09,16.31,17.19,0,30.67-5.49,40.09-16.31h0C688.2,269,690,256.21,690,239V162.53A2,2,0,0,0,688,160.52Z"/>
          <path class="cls-1" d="M788.16,222.53,764,212.46c-7.88-3.19-16.28-7.55-16.28-19,0-12.71,11.26-17.23,21.79-17.23,10.21,0,19.42,4.49,28.15,13.74a1,1,0,0,0,.78.31,1,1,0,0,0,.74-.39L808.36,178a2,2,0,0,0-.14-2.63c-10.72-11-23.42-16.59-37.74-16.59-11.2,0-21.68,3.16-29.52,8.91a32.38,32.38,0,0,0-13.66,27.05c0,15,7.48,26.16,22.22,33,4.92,2.46,13.8,6,21,8.77l.72.29c7,2.76,19.93,7.91,19.93,20.44s-9.91,21-24.65,21c-13.81,0-25.81-9.51-32.44-18.4a1,1,0,0,0-.76-.41,1,1,0,0,0-.8.35l-10.25,11.68a2,2,0,0,0,0,2.65c6.11,7,19.61,21.72,42.54,21.72,23.26,0,46.79-13.66,46.79-39.76C811.57,241.48,803.27,229.56,788.16,222.53Z"/>
          <path class="cls-1" d="M72.24,466H30.1a2,2,0,0,1-2-2V352.52a2,2,0,0,0-2-2H9.66a2,2,0,0,0-2,2V481.59a2,2,0,0,0,2,2H72.24a2,2,0,0,0,2-2V468A2,2,0,0,0,72.24,466Z"/>
          <path class="cls-1" d="M162.14,350.75a1,1,0,0,0-.93-.63H145.06a1,1,0,0,0-.93.63L90.74,482.22a1,1,0,0,0,.1.94,1,1,0,0,0,.83.44h18.69a2,2,0,0,0,1.88-1.27l12.48-31.65a2,2,0,0,1,1.87-1.28h52.13a2,2,0,0,1,1.88,1.28l12.48,31.65A2,2,0,0,0,195,483.6h19.84a1,1,0,0,0,.83-.44,1,1,0,0,0,.09-.94ZM171.23,432H134.09a2,2,0,0,1-1.88-2.75l18.57-47.58a2,2,0,0,1,3.76,0l18.57,47.58A2,2,0,0,1,171.23,432Z"/>
          <path class="cls-1" d="M312.08,414.47a2,2,0,0,1-.42-3.61,31.57,31.57,0,0,0,13.94-26.49c0-12.18-4.75-21.16-14.52-27.43-8.2-5.34-18.6-6.44-31.7-6.44H245.05a2,2,0,0,0-2,2V481.59a2,2,0,0,0,2,2H286.6c15.83,0,25.9-2.62,33.67-8.77,9.86-7.78,14.45-17.15,14.45-29.47C334.72,430.63,326.57,419.67,312.08,414.47Zm-48.61,10.35a2,2,0,0,1,2-2h16.75c8.25,0,16.17.35,22.42,4.57s9.06,9.45,9.06,17.22c0,7.93-2.79,13.36-9.06,17.6-6,4.06-13.39,4.39-22.42,4.39H265.48a2,2,0,0,1-2-2ZM296.83,403c-4.27,3.16-10.43,3.79-19,3.79H265.48a2,2,0,0,1-2-2V369.15a2,2,0,0,1,2-2h13.9c17.59,0,25.78,6.14,25.78,19.32C305.16,395.56,301,399.9,296.83,403Z"/>
          <path class="cls-1" d="M424,412.52l-24.14-10.08c-7.88-3.18-16.28-7.55-16.28-19,0-12.71,11.26-17.24,21.8-17.24,10.2,0,19.41,4.5,28.14,13.74a1,1,0,0,0,.78.32,1,1,0,0,0,.75-.39L444.16,368a2,2,0,0,0-.13-2.62c-10.73-11-23.43-16.6-37.74-16.6-11.21,0-21.69,3.17-29.52,8.91a32.37,32.37,0,0,0-13.67,27.05c0,15.05,7.49,26.16,22.22,33,4.9,2.45,13.79,6,21,8.77l.73.29c7,2.77,19.92,7.92,19.92,20.44s-9.9,21-24.64,21c-13.82,0-25.82-9.51-32.45-18.41a1,1,0,0,0-.76-.4,1,1,0,0,0-.8.34l-10.24,11.68a2,2,0,0,0,0,2.65c6.11,7,19.61,21.72,42.55,21.72,23.25,0,46.79-13.66,46.79-39.76C447.38,431.47,439.07,419.54,424,412.52Z"/>
        </g>
        <g>
          <path class="cls-2" d="M1264.63,303.58l-49.73-34.31L1264.61,235a23.05,23.05,0,0,0,0-37.71l-122-84.14a35.19,35.19,0,0,0-40.22,0l-122,84A22.79,22.79,0,0,0,970.65,216c0,.64,0,1.32.1,2.07,0,.33-.06.65-.06,1l0,103.25a22.9,22.9,0,0,0,9.78,18.86l49.74,34.31-49.71,34.24a23.06,23.06,0,0,0,0,37.73l122,84.12a35.42,35.42,0,0,0,20.1,6.32h0a35.39,35.39,0,0,0,20.09-6.3l122-84a22.9,22.9,0,0,0,9.8-18.86c0-.48,0-1-.05-1.38l.05-101.85a8.69,8.69,0,0,0-.09-1.19c.06-.68.09-1.29.09-1.86A22.91,22.91,0,0,0,1264.63,303.58Zm-276.14-5.66,0-57.43,41.65,28.74Zm123.84,6-50.22-34.65,50.3-34.63a17.84,17.84,0,0,1,10.15-3.19h0a17.85,17.85,0,0,1,10.16,3.2l50.21,34.64-50.29,34.64A17.79,17.79,0,0,1,1112.33,303.89Zm.08,37a17.83,17.83,0,0,1,10.15-3.18h0a17.84,17.84,0,0,1,10.16,3.19L1183,375.54l-50.3,34.63a17.77,17.77,0,0,1-20.32,0l-50.22-34.65ZM988.48,322a4.37,4.37,0,0,1,1.91-3.4l55.74-38.39,56.25,38.8a35.94,35.94,0,0,0,6,3.36,36.39,36.39,0,0,0-5.94,3.31l-56.31,38.79L990.39,326h0a4.42,4.42,0,0,1-1.91-3.52,1.09,1.09,0,0,0,0-.18Zm134.08-108.91a35.43,35.43,0,0,0-20.1,6.31l-56.32,38.78-55.76-38.46a4.53,4.53,0,0,1,0-7.4l122-84a17.83,17.83,0,0,1,10.15-3.18h0a17.84,17.84,0,0,1,10.16,3.19l121.94,84.13a4.53,4.53,0,0,1,0,7.4l-55.74,38.39-56.25-38.81A35.41,35.41,0,0,0,1122.56,213.13ZM990.39,424.91l55.74-38.39,56.25,38.81a35.42,35.42,0,0,0,20.1,6.32h0a35.39,35.39,0,0,0,20.09-6.3l56.33-38.79L1254.67,425a4.33,4.33,0,0,1,1.88,3.09v.62c0,.14,0,.27,0,.4v0a4.35,4.35,0,0,1-1.9,3.25l-122,84a17.79,17.79,0,0,1-20.32,0L990.38,432.31a4.53,4.53,0,0,1,0-7.4Zm264.28-98.76-55.75,38.39-56.24-38.8a35.94,35.94,0,0,0-6-3.36,36.3,36.3,0,0,0,5.93-3.31l56.32-38.79,55.76,38.47h0a4.42,4.42,0,0,1,1.92,3.69A4.47,4.47,0,0,1,1254.67,326.15Zm-39.77,49.41,41.68-28.71,0,57.45Z"/>
          <path class="cls-3" d="M1122.55,0V.41c170.55,8.4,306.26,149.33,306.26,322S1293.1,636,1122.55,644.37v.41c178,0,322.38-144.34,322.38-322.39S1300.6,0,1122.55,0Z"/>
        </g>
        <g>
          <path class="cls-1" d="M66.42,222.53,42.28,212.46c-7.88-3.19-16.28-7.55-16.28-19,0-12.71,11.25-17.23,21.79-17.23C58,176.21,67.2,180.7,75.94,190a1,1,0,0,0,.78.31,1,1,0,0,0,.74-.39L86.62,178a2,2,0,0,0-.14-2.63c-10.73-11-23.42-16.59-37.74-16.59-11.2,0-21.69,3.16-29.52,8.91A32.36,32.36,0,0,0,5.56,194.77c0,15,7.48,26.16,22.21,33,4.93,2.46,13.8,6,21,8.77l.72.29c7,2.76,19.93,7.91,19.93,20.44s-9.91,21-24.65,21c-13.82,0-25.82-9.51-32.44-18.4a1,1,0,0,0-.77-.41,1,1,0,0,0-.79.35L.5,271.53a2,2,0,0,0,0,2.65c6.12,7,19.62,21.72,42.55,21.72,23.25,0,46.79-13.66,46.79-39.76C89.83,241.49,81.53,229.56,66.42,222.53Z"/>
          <path class="cls-1" d="M233.1,177c-12.48-11.83-29.65-18.35-48.33-18.35s-35.85,6.52-48.33,18.35c-13.29,12.59-20.31,30-20.31,50.29s7,37.7,20.31,50.29c12.48,11.83,29.64,18.35,48.33,18.35s35.85-6.52,48.33-18.35c13.28-12.59,20.31-30,20.31-50.29S246.38,189.56,233.1,177Zm-.51,49.91c0,29.61-19.66,50.29-47.82,50.29-13,0-25-4.75-33.68-13.39-9.25-9.2-14.14-22-14.14-36.9,0-29.61,19.66-50.29,47.82-50.29S232.59,197.27,232.59,226.88Z"/>
          <path class="cls-1" d="M351.89,276H309.75a2,2,0,0,1-2-2V162.53a2,2,0,0,0-2-2H289.32a2,2,0,0,0-2,2V291.6a2,2,0,0,0,2,2h62.57a2,2,0,0,0,2-2V278.05A2,2,0,0,0,351.89,276Z"/>
          <rect class="cls-1" x="382.67" y="160.52" width="20.44" height="133.1" rx="2.01"/>
          <path class="cls-1" d="M535,178.31c-12.6-11.47-30.39-17.79-50.09-17.79H446.43a2,2,0,0,0-2,2V291.6a2,2,0,0,0,2,2h38.51c19.7,0,37.49-6.32,50.09-17.79,13.25-12.06,20.26-28.92,20.26-48.76S548.28,190.37,535,178.31Zm-50.09,97.34H466.87a2,2,0,0,1-2-2V180.31a2,2,0,0,1,2-2h18.07c29.63,0,49.53,19.6,49.53,48.77S514.57,275.65,484.94,275.65Z"/>
          <path class="cls-1" d="M688,160.52H671.56a2,2,0,0,0-2,2v74.8c0,9.87,0,21.07-5.88,28.84-5.66,7.43-13.9,11.19-24.47,11.19s-19.07-3.86-24.46-11.19c-5.88-7.77-5.88-19-5.88-28.84v-74.8a2,2,0,0,0-2-2h-16.6a2,2,0,0,0-2,2V239c0,17.2,1.82,30,10.88,40.55,9.22,10.82,22.71,16.31,40.09,16.31,17.19,0,30.67-5.49,40.09-16.31h0C688.2,269,690,256.21,690,239V162.53A2,2,0,0,0,688,160.52Z"/>
          <path class="cls-1" d="M788.16,222.53,764,212.46c-7.88-3.19-16.28-7.55-16.28-19,0-12.71,11.26-17.23,21.79-17.23,10.21,0,19.42,4.49,28.15,13.74a1,1,0,0,0,.78.31,1,1,0,0,0,.74-.39L808.36,178a2,2,0,0,0-.14-2.63c-10.72-11-23.42-16.59-37.74-16.59-11.2,0-21.68,3.16-29.52,8.91a32.38,32.38,0,0,0-13.66,27.05c0,15,7.48,26.16,22.22,33,4.92,2.46,13.8,6,21,8.77l.72.29c7,2.76,19.93,7.91,19.93,20.44s-9.91,21-24.65,21c-13.81,0-25.81-9.51-32.44-18.4a1,1,0,0,0-.76-.41,1,1,0,0,0-.8.35l-10.25,11.68a2,2,0,0,0,0,2.65c6.11,7,19.61,21.72,42.54,21.72,23.26,0,46.79-13.66,46.79-39.76C811.57,241.48,803.27,229.56,788.16,222.53Z"/>
          <path class="cls-1" d="M72.24,466H30.1a2,2,0,0,1-2-2V352.52a2,2,0,0,0-2-2H9.66a2,2,0,0,0-2,2V481.59a2,2,0,0,0,2,2H72.24a2,2,0,0,0,2-2V468A2,2,0,0,0,72.24,466Z"/>
          <path class="cls-1" d="M162.14,350.75a1,1,0,0,0-.93-.63H145.06a1,1,0,0,0-.93.63L90.74,482.22a1,1,0,0,0,.1.94,1,1,0,0,0,.83.44h18.69a2,2,0,0,0,1.88-1.27l12.48-31.65a2,2,0,0,1,1.87-1.28h52.13a2,2,0,0,1,1.88,1.28l12.48,31.65A2,2,0,0,0,195,483.6h19.84a1,1,0,0,0,.83-.44,1,1,0,0,0,.09-.94ZM171.23,432H134.09a2,2,0,0,1-1.88-2.75l18.57-47.58a2,2,0,0,1,3.76,0l18.57,47.58A2,2,0,0,1,171.23,432Z"/>
          <path class="cls-1" d="M312.08,414.47a2,2,0,0,1-.42-3.61,31.57,31.57,0,0,0,13.94-26.49c0-12.18-4.75-21.16-14.52-27.43-8.2-5.34-18.6-6.44-31.7-6.44H245.05a2,2,0,0,0-2,2V481.59a2,2,0,0,0,2,2H286.6c15.83,0,25.9-2.62,33.67-8.77,9.86-7.78,14.45-17.15,14.45-29.47C334.72,430.63,326.57,419.67,312.08,414.47Zm-48.61,10.35a2,2,0,0,1,2-2h16.75c8.25,0,16.17.35,22.42,4.57s9.06,9.45,9.06,17.22c0,7.93-2.79,13.36-9.06,17.6-6,4.06-13.39,4.39-22.42,4.39H265.48a2,2,0,0,1-2-2ZM296.83,403c-4.27,3.16-10.43,3.79-19,3.79H265.48a2,2,0,0,1-2-2V369.15a2,2,0,0,1,2-2h13.9c17.59,0,25.78,6.14,25.78,19.32C305.16,395.56,301,399.9,296.83,403Z"/>
          <path class="cls-1" d="M424,412.52l-24.14-10.08c-7.88-3.18-16.28-7.55-16.28-19,0-12.71,11.26-17.24,21.8-17.24,10.2,0,19.41,4.5,28.14,13.74a1,1,0,0,0,.78.32,1,1,0,0,0,.75-.39L444.16,368a2,2,0,0,0-.13-2.62c-10.73-11-23.43-16.6-37.74-16.6-11.21,0-21.69,3.17-29.52,8.91a32.37,32.37,0,0,0-13.67,27.05c0,15.05,7.49,26.16,22.22,33,4.9,2.45,13.79,6,21,8.77l.73.29c7,2.77,19.92,7.92,19.92,20.44s-9.9,21-24.64,21c-13.82,0-25.82-9.51-32.45-18.41a1,1,0,0,0-.76-.4,1,1,0,0,0-.8.34l-10.24,11.68a2,2,0,0,0,0,2.65c6.11,7,19.61,21.72,42.55,21.72,23.25,0,46.79-13.66,46.79-39.76C447.38,431.47,439.07,419.54,424,412.52Z"/>
        </g>
        <g>
          <path class="cls-2" d="M1264.63,303.58l-49.73-34.31L1264.61,235a23.05,23.05,0,0,0,0-37.71l-122-84.14a35.19,35.19,0,0,0-40.22,0l-122,84A22.79,22.79,0,0,0,970.65,216c0,.64,0,1.32.1,2.07,0,.33-.06.65-.06,1l0,103.25a22.9,22.9,0,0,0,9.78,18.86l49.74,34.31-49.71,34.24a23.06,23.06,0,0,0,0,37.73l122,84.12a35.42,35.42,0,0,0,20.1,6.32h0a35.39,35.39,0,0,0,20.09-6.3l122-84a22.9,22.9,0,0,0,9.8-18.86c0-.48,0-1-.05-1.38l.05-101.85a8.69,8.69,0,0,0-.09-1.19c.06-.68.09-1.29.09-1.86A22.91,22.91,0,0,0,1264.63,303.58Zm-276.14-5.66,0-57.43,41.65,28.74Zm123.84,6-50.22-34.65,50.3-34.63a17.84,17.84,0,0,1,10.15-3.19h0a17.85,17.85,0,0,1,10.16,3.2l50.21,34.64-50.29,34.64A17.79,17.79,0,0,1,1112.33,303.89Zm.08,37a17.83,17.83,0,0,1,10.15-3.18h0a17.84,17.84,0,0,1,10.16,3.19L1183,375.54l-50.3,34.63a17.77,17.77,0,0,1-20.32,0l-50.22-34.65ZM988.48,322a4.37,4.37,0,0,1,1.91-3.4l55.74-38.39,56.25,38.8a35.94,35.94,0,0,0,6,3.36,36.39,36.39,0,0,0-5.94,3.31l-56.31,38.79L990.39,326h0a4.42,4.42,0,0,1-1.91-3.52,1.09,1.09,0,0,0,0-.18Zm134.08-108.91a35.43,35.43,0,0,0-20.1,6.31l-56.32,38.78-55.76-38.46a4.53,4.53,0,0,1,0-7.4l122-84a17.83,17.83,0,0,1,10.15-3.18h0a17.84,17.84,0,0,1,10.16,3.19l121.94,84.13a4.53,4.53,0,0,1,0,7.4l-55.74,38.39-56.25-38.81A35.41,35.41,0,0,0,1122.56,213.13ZM990.39,424.91l55.74-38.39,56.25,38.81a35.42,35.42,0,0,0,20.1,6.32h0a35.39,35.39,0,0,0,20.09-6.3l56.33-38.79L1254.67,425a4.33,4.33,0,0,1,1.88,3.09v.62c0,.14,0,.27,0,.4v0a4.35,4.35,0,0,1-1.9,3.25l-122,84a17.79,17.79,0,0,1-20.32,0L990.38,432.31a4.53,4.53,0,0,1,0-7.4Zm264.28-98.76-55.75,38.39-56.24-38.8a35.94,35.94,0,0,0-6-3.36,36.3,36.3,0,0,0,5.93-3.31l56.32-38.79,55.76,38.47h0a4.42,4.42,0,0,1,1.92,3.69A4.47,4.47,0,0,1,1254.67,326.15Zm-39.77,49.41,41.68-28.71,0,57.45Z"/>
          <path class="cls-2" d="M1122.55,0V.41c170.55,8.4,306.26,149.33,306.26,322S1293.1,636,1122.55,644.37v.41c178,0,322.38-144.34,322.38-322.39S1300.6,0,1122.55,0Z"/>
        </g>
      </g>
    </g>
  </g>
</svg>
